# xmcd
#
# Track frame offsets: 
#        150
#        15827
#        38198
#
# Disc length: 653 seconds
#
# Revision: 0
# Processed by: cddbd v1.5.2PL0 Copyright (c) Steve Scherf et al.
# Submitted via: ExactAudioCopy v1.0b1
#
DISCID=14028b03
DTITLE=Bright Lightning - Lifetown
DYEAR=2006
DGENRE=Alt Countryrock
TTITLE0=Lifetown
TTITLE1=Medicine
TTITLE2=Three Simple Words
EXTD=
EXTT0=
EXTT1=
EXTT2=
PLAYORDER=
